<svg xmlns="http://www.w3.org/2000/svg" width="192" height="192" viewBox="0 0 96 96" version="1.1"><path d="M 34.500 7.352 C 13.842 14.161, 1.225 34.173, 4.722 54.587 C 7.107 68.513, 16.031 80.293, 28.726 86.274 C 34.827 89.149, 36.611 89.503, 46.674 89.838 C 62.238 90.357, 70.232 87.648, 79.853 78.596 C 88.755 70.221, 93 60.342, 93 48 C 93 31.281, 83.858 16.911, 68.494 9.475 C 63.051 6.841, 61.398 6.550, 50.500 6.304 C 42.569 6.126, 37.144 6.481, 34.500 7.352 M 44.988 12.990 C 26.237 16.215, 12.942 34.708, 15.975 53.346 C 20.643 82.030, 55.581 93.482, 76.032 73.032 C 94.385 54.679, 87.384 23.351, 63 14.715 C 57.159 12.646, 50.625 12.021, 44.988 12.990 M 45.763 26.565 C 42.760 28.195, 40 32.713, 40 36 C 40 41.300, 45.700 47, 51 47 C 56.300 47, 62 41.300, 62 36 C 62 32.612, 59.193 28.151, 56.033 26.517 C 52.385 24.631, 49.302 24.645, 45.763 26.565 M 48.040 33.452 C 46.485 35.325, 47.028 37.989, 49.250 39.388 C 52.715 41.570, 56.617 36.653, 53.960 33.452 C 52.416 31.591, 49.584 31.591, 48.040 33.452 M 30 54 C 30 56.667, 30.333 57, 33 57 C 35.667 57, 36 56.667, 36 54 C 36 51.333, 35.667 51, 33 51 C 30.333 51, 30 51.333, 30 54 M 42 54 C 42 56.667, 42.333 57, 45 57 C 47.667 57, 48 56.667, 48 54 C 48 51.333, 47.667 51, 45 51 C 42.333 51, 42 51.333, 42 54 M 54 54 C 54 56.667, 54.333 57, 57 57 C 59.667 57, 60 56.667, 60 54 C 60 51.333, 59.667 51, 57 51 C 54.333 51, 54 51.333, 54 54 M 66 54 C 66 56.667, 66.333 57, 69 57 C 71.667 57, 72 56.667, 72 54 C 72 51.333, 71.667 51, 69 51 C 66.333 51, 66 51.333, 66 54 M 30 66 C 30 68.667, 30.333 69, 33 69 C 35.667 69, 36 68.667, 36 66 C 36 63.333, 35.667 63, 33 63 C 30.333 63, 30 63.333, 30 66 M 66 66 C 66 68.667, 66.333 69, 69 69 C 71.667 69, 72 68.667, 72 66 C 72 63.333, 71.667 63, 69 63 C 66.333 63, 66 63.333, 66 66" stroke="none" fill="#ffdc54" fill-rule="evenodd"/><path d="" stroke="none" fill="#fcdc54" fill-rule="evenodd"/></svg>